<?xml version="1.0" standalone="no"?>
<!DOCTYPE svg PUBLIC "-//W3C//DTD SVG 20010904//EN"
 "http://www.w3.org/TR/2001/REC-SVG-20010904/DTD/svg10.dtd">
<svg version="1.0" xmlns="http://www.w3.org/2000/svg"
 width="512.000000pt" height="512.000000pt" viewBox="0 0 512.000000 512.000000"
 preserveAspectRatio="xMidYMid meet">
<metadata>
Created by potrace 1.14, written by Peter Selinger 2001-2017
</metadata>
<g transform="translate(0.000000,512.000000) scale(0.100000,-0.100000)"
fill="#000000" stroke="none">
<path d="M2379 5116 c-2 -2 -35 -6 -74 -9 -560 -48 -1135 -319 -1547 -729
-131 -130 -158 -161 -250 -283 -250 -334 -408 -699 -482 -1116 -22 -129 -28
-241 -23 -476 3 -142 8 -274 11 -293 52 -289 96 -443 185 -653 160 -375 426
-726 742 -981 100 -81 307 -219 403 -271 241 -128 553 -233 802 -270 22 -4 50
-8 64 -11 104 -19 466 -26 606 -12 84 9 265 37 275 43 4 3 24 7 45 11 59 9
256 71 369 115 113 44 314 143 381 189 25 16 47 30 49 30 2 0 24 14 47 30 24
17 59 41 78 54 136 90 343 286 497 469 122 146 267 382 355 581 62 141 143
392 162 501 7 42 15 86 21 111 20 90 29 624 12 744 -80 571 -330 1076 -731
1475 -294 292 -605 486 -997 621 -102 35 -313 88 -389 98 -25 4 -56 8 -70 11
-75 13 -134 17 -326 21 -116 2 -213 2 -215 0z m441 -319 c14 -4 43 -8 65 -11
202 -23 473 -109 687 -217 695 -349 1162 -1029 1235 -1799 13 -136 8 -397 -11
-520 -27 -178 -75 -362 -137 -517 -116 -292 -309 -578 -537 -795 -97 -92 -253
-218 -270 -218 -6 0 -12 -4 -14 -9 -5 -15 -160 -107 -276 -165 -160 -80 -408
-166 -548 -191 -22 -4 -49 -9 -61 -11 -127 -23 -214 -29 -393 -29 -150 0 -274
7 -330 19 -8 1 -37 6 -65 10 -237 37 -567 164 -797 307 -260 161 -516 408
-686 661 -159 237 -291 556 -337 813 -4 22 -9 50 -11 63 -2 12 -6 34 -9 50
-25 142 -25 485 0 642 58 358 170 646 365 936 72 107 77 114 181 233 193 222
462 422 746 554 195 91 477 170 683 192 36 4 67 8 68 10 6 6 425 -2 452 -8z"/>
<path d="M894 3466 c-2 -6 -3 -425 -2 -931 l3 -920 130 0 c72 -1 135 1 142 3
10 3 12 213 12 931 l0 927 -140 0 c-90 0 -143 -4 -145 -10z"/>
<path d="M1673 3472 l-142 -3 0 -604 c0 -560 2 -605 17 -606 63 -3 264 0 268
3 2 3 3 277 2 609 l-3 604 -142 -3z"/>
<path d="M2171 2548 l1 -928 144 0 145 0 -3 928 -3 929 -143 -1 -143 -1 2
-927z"/>
<path d="M2813 3473 c-11 -4 -4 -386 7 -393 4 -3 52 -4 107 -3 54 1 114 2 134
2 l35 1 -2 193 c-2 105 -3 195 -3 198 -1 5 -262 7 -278 2z"/>
<path d="M3395 3415 c-2 -5 -3 -71 -2 -144 l2 -135 515 0 515 -1 3 143 3 142
-463 1 c-255 0 -487 1 -517 2 -29 1 -55 -2 -56 -8z"/>
<path d="M2810 2228 l0 -609 143 3 142 3 0 605 0 605 -142 0 -143 1 0 -608z"/>
<path d="M3450 2795 c-4 -464 3 -1170 10 -1175 14 -9 258 -5 267 4 9 8 11
1205 3 1207 -3 1 -67 2 -142 3 l-138 2 0 -41z"/>
</g>
</svg>
