<?xml version="1.0" encoding="iso-8859-1"?>
<!-- Generator: Adobe Illustrator 19.1.0, SVG Export Plug-In . SVG Version: 6.00 Build 0)  -->
<svg version="1.1" id="Capa_1" xmlns="http://www.w3.org/2000/svg" xmlns:xlink="http://www.w3.org/1999/xlink" x="0px" y="0px"
	 viewBox="0 0 65.485 65.485" style="enable-background:new 0 0 65.485 65.485;" xml:space="preserve">
<g>
	<g id="group-6svg">
		<path id="path-1_26_" style="fill:#8B71B5;" d="M32.515,37.462c-8.916-8.916-11.246-21.901-7.039-32.97
			c-3.973,1.51-7.705,3.84-10.905,7.039C2.456,23.647,2.456,43.29,14.572,55.405c12.115,12.116,31.758,12.116,43.874,0.001
			c3.199-3.2,5.529-6.932,7.039-10.905C54.416,48.707,41.43,46.378,32.515,37.462z"/>
		<path id="path-2_26_" d="M32.509,63.992c-8.688,0-16.855-3.383-22.998-9.526C-3.17,41.785-3.17,21.151,9.511,8.471
			c3.25-3.25,7.096-5.733,11.432-7.381c0.552-0.21,1.176-0.076,1.593,0.341c0.418,0.418,0.552,1.042,0.342,1.594
			c-4.128,10.864-1.499,23.18,6.697,31.376c5.564,5.564,12.967,8.629,20.843,8.629c3.618,0,7.163-0.65,10.534-1.931
			c0.553-0.21,1.176-0.076,1.593,0.342c0.418,0.417,0.551,1.041,0.342,1.593c-1.649,4.337-4.132,8.183-7.381,11.432
			C49.364,60.609,41.196,63.992,32.509,63.992z M19.029,5.214c-2.737,1.396-5.216,3.197-7.397,5.378
			c-11.511,11.511-11.511,30.242,0,41.753c5.576,5.577,12.99,8.647,20.877,8.647c7.886,0,15.3-3.07,20.876-8.647
			c2.181-2.181,3.981-4.659,5.376-7.395c-2.713,0.718-5.508,1.08-8.343,1.08c-8.678,0-16.833-3.377-22.964-9.507
			C19.234,28.302,16.096,16.323,19.029,5.214z"/>
	</g>
</g>
<g>
</g>
<g>
</g>
<g>
</g>
<g>
</g>
<g>
</g>
<g>
</g>
<g>
</g>
<g>
</g>
<g>
</g>
<g>
</g>
<g>
</g>
<g>
</g>
<g>
</g>
<g>
</g>
<g>
</g>
</svg>
